<?xml version="1.0" encoding="utf-8"?>
<!-- Generator: Adobe Illustrator 19.2.0, SVG Export Plug-In . SVG Version: 6.00 Build 0)  -->
<svg version="1.1" id="Layer_1" xmlns:sketch="http://www.bohemiancoding.com/sketch/ns"
	 xmlns="http://www.w3.org/2000/svg" xmlns:xlink="http://www.w3.org/1999/xlink" x="0px" y="0px" viewBox="0 0 960 206"
	 style="enable-background:new 0 0 960 206;" xml:space="preserve">
<style type="text/css">
	.st0{fill:#FFFFFF;}
</style>
<title>futurice-logo--green</title>
<desc>Created with Sketch.</desc>
<g sketch:type="MSPage">
	<g sketch:type="MSLayerGroup">
		<g sketch:type="MSShapeGroup">
			<path class="st0" d="M190.9,23.7h11V64h-11V23.7L190.9,23.7z"/>
			<path class="st0" d="M61.7,23.7v21.8c0,5.3-2.5,8.5-7.4,8.5l0,0c-4.9,0-7.4-3.1-7.4-8.5V23.7H35.8v24.5
				c0,10.4,7.7,16.5,18.6,16.5s18.6-6.2,18.6-16.5V23.7H61.7L61.7,23.7z"/>
			<path class="st0" d="M139.3,23.7v21.8c0,5.3-2.5,8.5-7.4,8.5l0,0c-4.9,0-7.4-3.1-7.4-8.5V23.7h-11.2v24.5
				c0,10.4,7.7,16.5,18.6,16.5s18.6-6.1,18.6-16.5V23.7H139.3L139.3,23.7z"/>
			<circle class="st0" cx="196.2" cy="11.3" r="7"/>
			<path class="st0" d="M157.4,23.7v12.1V64h11V33.7h15.4v-9.9h-15.4H157.4z"/>
			<path class="st0" d="M274.5,51.5c-2,2.2-4.8,3.7-8,3.7h-0.1c-5.8,0-9.4-2.9-10.7-7.4h31v-4c0-11.6-8.5-20.9-20.8-20.9
				c-11.6,0-21,9.4-21,21s8.7,21,21.2,21h0.2c6.5,0,11.6-2.5,15.2-6.1L274.5,51.5L274.5,51.5z M266,32.6c4.7,0,8.2,2.1,9.6,6.4
				h-19.5C257.8,35.1,261.3,32.6,266,32.6L266,32.6z"/>
			<path class="st0" d="M235.7,51.5c-1.9,1.8-4.3,2.9-7.1,2.9h-0.2c-5.7-0.1-10-4.7-10-10.5c0-5.7,4.3-10.4,10-10.5h0.2
				c3,0,5.6,1.3,7.5,3.3l7.6-7.6c-3.7-3.9-8.9-6.3-15.2-6.3h-0.1c-11.5,0.1-20.6,9.4-20.6,20.9s9.2,20.9,20.6,20.9h0.1
				c5.9,0,11-2.2,14.7-5.8L235.7,51.5L235.7,51.5z"/>
			<path class="st0" d="M90.9,23.7V8.7h-11v15v9.9v12.9c0,13.2,4.3,17.5,17,17.5h1.6h7.9V53.7h-7.9c-6.8,0-7.6-1-7.6-7.3V33.7h7.6
				h7.9v-1.4v-7.3v-1.3C106.2,23.7,90.9,23.7,90.9,23.7L90.9,23.7z"/>
			<path class="st0" d="M14.1,21.1c0-3.8,2.3-6,5.5-6c2,0,3.6,1.1,4.3,2.3l6.7-6.7c-3.5-4.8-8-6.4-12.5-6.4C10,4.3,3.3,11.5,3.1,21
				v43.1h11V33.3h14.3v-9.6H14.1V21.1L14.1,21.1z"/>
		</g>
	</g>
</g>
</svg>
