<?xml version="1.0" encoding="utf-8"?>
<!-- Generator: Adobe Illustrator 19.2.1, SVG Export Plug-In . SVG Version: 6.00 Build 0)  -->
<svg version="1.1" id="Layer_1" xmlns="http://www.w3.org/2000/svg" xmlns:xlink="http://www.w3.org/1999/xlink" x="0px" y="0px"
	 viewBox="0 0 566.8 214.2" style="enable-background:new 0 0 566.8 214.2;" xml:space="preserve">
<style type="text/css">
	.st0{fill-rule:evenodd;clip-rule:evenodd;fill:#191717;}
	.st1{fill:#191717;}
	.st2{fill:#100E0F;}
</style>
<g>
	<path class="st0" d="M88.7,54.6c-28.1,0-50.9,22.8-50.9,50.9c0,22.5,14.6,41.6,34.8,48.3c2.5,0.5,3.5-1.1,3.5-2.4
		c0-1.2,0-5.2-0.1-9.5c-14.2,3.1-17.2-6-17.2-6c-2.3-5.9-5.7-7.4-5.7-7.4c-4.6-3.2,0.3-3.1,0.3-3.1c5.1,0.4,7.8,5.2,7.8,5.2
		c4.5,7.8,11.9,5.5,14.8,4.2c0.5-3.3,1.8-5.5,3.2-6.8c-11.3-1.3-23.2-5.7-23.2-25.2c0-5.6,2-10.1,5.2-13.7
		c-0.5-1.3-2.3-6.5,0.5-13.5c0,0,4.3-1.4,14,5.2c4.1-1.1,8.4-1.7,12.7-1.7c4.3,0,8.7,0.6,12.8,1.7c9.7-6.6,14-5.2,14-5.2
		c2.8,7,1,12.2,0.5,13.5c3.3,3.6,5.2,8.1,5.2,13.7c0,19.6-11.9,23.9-23.2,25.1c1.8,1.6,3.5,4.7,3.5,9.4c0,6.8-0.1,12.3-0.1,14
		c0,1.4,0.9,2.9,3.5,2.4c20.2-6.7,34.8-25.8,34.8-48.3C139.6,77.4,116.8,54.6,88.7,54.6z"/>
	<path class="st1" d="M57,127.7c-0.1,0.3-0.5,0.3-0.9,0.2c-0.4-0.2-0.6-0.5-0.5-0.8c0.1-0.3,0.5-0.3,0.9-0.2
		C56.9,127.1,57.2,127.4,57,127.7L57,127.7z M56.4,127.2"/>
	<path class="st1" d="M59.1,130c-0.2,0.2-0.7,0.1-1-0.2c-0.3-0.4-0.4-0.8-0.1-1.1c0.3-0.2,0.7-0.1,1,0.2
		C59.3,129.3,59.3,129.7,59.1,130L59.1,130z M58.6,129.5"/>
	<path class="st1" d="M61.1,132.9c-0.3,0.2-0.8,0-1.1-0.4c-0.3-0.5-0.3-1,0-1.2c0.3-0.2,0.8,0,1.1,0.4
		C61.4,132.1,61.4,132.7,61.1,132.9L61.1,132.9z M61.1,132.9"/>
	<path class="st1" d="M63.8,135.7c-0.3,0.3-0.9,0.2-1.3-0.2c-0.4-0.4-0.6-1-0.3-1.3c0.3-0.3,0.9-0.2,1.3,0.2
		C64,134.8,64.1,135.4,63.8,135.7L63.8,135.7z M63.8,135.7"/>
	<path class="st1" d="M67.6,137.4c-0.1,0.4-0.7,0.6-1.3,0.4c-0.6-0.2-1-0.6-0.8-1c0.1-0.4,0.7-0.6,1.3-0.4
		C67.4,136.5,67.8,137,67.6,137.4L67.6,137.4z M67.6,137.4"/>
	<path class="st1" d="M71.8,137.7c0,0.4-0.5,0.8-1.1,0.8c-0.6,0-1.1-0.3-1.1-0.7c0-0.4,0.5-0.8,1.1-0.8
		C71.3,136.9,71.8,137.3,71.8,137.7L71.8,137.7z M71.8,137.7"/>
	<path class="st1" d="M75.7,137c0.1,0.4-0.3,0.8-0.9,0.9c-0.6,0.1-1.1-0.1-1.2-0.6c-0.1-0.4,0.4-0.8,0.9-0.9
		C75.1,136.4,75.6,136.6,75.7,137L75.7,137z M75.7,137"/>
</g>
<g>
	<path class="st2" d="M231.3,96.9h-29.2c-0.8,0-1.4,0.6-1.4,1.4v14.3c0,0.8,0.6,1.4,1.4,1.4h11.4v17.8c0,0-2.6,0.9-9.6,0.9
		c-8.4,0-20-3.1-20-28.7c0-25.7,12.2-29,23.6-29c9.9,0,14.1,1.7,16.8,2.6c0.9,0.3,1.6-0.6,1.6-1.3l3.3-13.8c0-0.4-0.1-0.8-0.5-1.1
		c-1.1-0.8-7.8-4.5-24.8-4.5c-19.5,0-39.5,8.3-39.5,48.2c0,39.9,22.9,45.9,42.2,45.9c16,0,25.7-6.8,25.7-6.8c0.4-0.2,0.4-0.8,0.4-1
		V98.2C232.7,97.5,232.1,96.9,231.3,96.9z"/>
	<path class="st2" d="M382.1,61.4c0-0.8-0.6-1.4-1.4-1.4h-16.5c-0.8,0-1.4,0.6-1.4,1.4c0,0,0,31.8,0,31.8h-25.7V61.4
		c0-0.8-0.6-1.4-1.4-1.4h-16.5c-0.7,0-1.4,0.6-1.4,1.4v86.2c0,0.8,0.6,1.4,1.4,1.4h16.5c0.8,0,1.4-0.6,1.4-1.4v-36.9h25.7
		c0,0,0,36.9,0,36.9c0,0.8,0.6,1.4,1.4,1.4h16.5c0.8,0,1.4-0.6,1.4-1.4V61.4z"/>
	<g>
		<g>
			<ellipse class="st2" cx="251.8" cy="72.7" rx="10.6" ry="10.7"/>
			<path class="st2" d="M261.2,129.4c0-2.2,0-39.8,0-39.8c0-0.8-0.6-1.4-1.4-1.4h-16.4c-0.8,0-1.4,0.8-1.4,1.5c0,0,0,47.9,0,57
				c0,1.7,1,2.2,2.4,2.2c0,0,7,0,14.8,0c1.6,0,2-0.8,2-2.2C261.2,143.6,261.2,131.7,261.2,129.4z"/>
		</g>
	</g>
	<path class="st2" d="M444.6,88.3h-16.3c-0.7,0-1.4,0.6-1.4,1.4V132c0,0-4.2,3-10,3c-5.9,0-7.5-2.7-7.5-8.4c0-5.8,0-36.8,0-36.8
		c0-0.8-0.6-1.4-1.4-1.4h-16.6c-0.7,0-1.4,0.6-1.4,1.4c0,0,0,22.5,0,39.6c0,17.1,9.5,21.3,22.7,21.3c10.8,0,19.5-6,19.5-6
		s0.4,3.1,0.6,3.5c0.2,0.4,0.7,0.7,1.2,0.7l10.5,0c0.7,0,1.4-0.6,1.4-1.4l0-57.8C446,89,445.4,88.3,444.6,88.3z"/>
	<path class="st2" d="M489.3,86.4c-9.3,0-15.6,4.1-15.6,4.1V61.4c0-0.8-0.6-1.4-1.4-1.4h-16.5c-0.8,0-1.4,0.6-1.4,1.4v86.2
		c0,0.8,0.6,1.4,1.4,1.4c0,0,11.5,0,11.5,0c0.5,0,0.9-0.3,1.2-0.7c0.3-0.5,0.7-4,0.7-4s6.8,6.4,19.5,6.4c15,0,23.6-7.6,23.6-34.2
		C512.3,89.9,498.6,86.4,489.3,86.4z M482.8,135c-5.7-0.2-9.5-2.7-9.5-2.7v-27.3c0,0,3.8-2.3,8.4-2.7c5.9-0.5,11.6,1.3,11.6,15.3
		C493.3,132.3,490.8,135.2,482.8,135z"/>
	<path class="st2" d="M308.6,88.2h-12.4c0,0,0-16.3,0-16.3c0-0.6-0.3-0.9-1-0.9h-16.8c-0.7,0-1,0.3-1,0.9v16.9c0,0-8.4,2-9,2.2
		c-0.6,0.2-1,0.7-1,1.3v10.6c0,0.8,0.6,1.4,1.4,1.4h8.6c0,0,0,11.1,0,25.5c0,18.9,13.3,20.8,22.2,20.8c4.1,0,9-1.3,9.8-1.6
		c0.5-0.2,0.8-0.7,0.8-1.2l0-11.7c0-0.8-0.6-1.4-1.4-1.4c-0.7,0-2.6,0.3-4.5,0.3c-6.1,0-8.1-2.8-8.1-6.5c0-3.6,0-24.2,0-24.2h12.4
		c0.8,0,1.4-0.6,1.4-1.4V89.6C309.9,88.8,309.3,88.2,308.6,88.2z"/>
</g>
</svg>
