<?xml version="1.0" encoding="utf-8"?>
<!-- Generator: Adobe Illustrator 19.1.0, SVG Export Plug-In . SVG Version: 6.00 Build 0)  -->
<svg width="30px" height="30px" version="1.1" id="Layer_1" xmlns="http://www.w3.org/2000/svg" xmlns:xlink="http://www.w3.org/1999/xlink" x="0px" y="0px"
	 viewBox="0 0 531 552" style="enable-background:new 0 0 531 552;" xml:space="preserve">
<style type="text/css">
	.st0{fill-rule:evenodd;clip-rule:evenodd;fill:#FFFFFF;}
	.st1{fill:#FFFFFF;}
</style>
<g class="main-group">
	<path class="st0" d="M265.5,29.9c-139.3,0-252.3,113-252.3,252.3c0,111.5,72.3,206.1,172.6,239.4c12.6,2.3,17.2-5.5,17.2-12.1
		c0-6-0.2-25.9-0.3-47c-70.2,15.3-85-29.8-85-29.8c-11.5-29.2-28-36.9-28-36.9c-22.9-15.7,1.7-15.3,1.7-15.3
		c25.3,1.8,38.7,26,38.7,26c22.5,38.6,59,27.4,73.4,21c2.3-16.3,8.8-27.4,16-33.7c-56-6.4-115-28-115-124.7c0-27.5,9.9-50.1,26-67.7
		c-2.6-6.4-11.3-32,2.4-66.8c0,0,21.2-6.8,69.4,25.9c20.1-5.6,41.7-8.4,63.2-8.5c21.4,0.1,43,2.9,63.2,8.5
		c48.2-32.6,69.3-25.9,69.3-25.9c13.7,34.8,5.1,60.4,2.5,66.8c16.2,17.7,26,40.2,26,67.7c0,96.9-59,118.2-115.2,124.5
		c9.1,7.8,17.1,23.2,17.1,46.7c0,33.8-0.3,60.9-0.3,69.2c0,6.7,4.5,14.6,17.3,12.1c100.2-33.4,172.4-127.9,172.4-239.4
		C517.8,142.9,404.8,29.9,265.5,29.9z"/>
	<path class="st1" d="M108.7,392.2c-0.6,1.3-2.5,1.6-4.3,0.8c-1.8-0.8-2.9-2.5-2.3-3.8c0.5-1.3,2.5-1.6,4.3-0.8
		C108.3,389.2,109.4,390.9,108.7,392.2L108.7,392.2z M105.6,389.9"/>
	<path class="st1" d="M119,403.6c-1.2,1.1-3.6,0.6-5.2-1.2c-1.7-1.8-2-4.1-0.7-5.2c1.2-1.1,3.5-0.6,5.2,1.2
		C119.9,400.1,120.2,402.4,119,403.6L119,403.6z M116.5,401"/>
	<path class="st1" d="M128.9,418.1c-1.5,1.1-4.1,0.1-5.6-2.2c-1.5-2.2-1.5-4.9,0-6c1.6-1.1,4.1-0.1,5.6,2.1
		C130.5,414.3,130.5,417,128.9,418.1L128.9,418.1z M128.9,418.1"/>
	<path class="st1" d="M142.5,432.1c-1.4,1.5-4.3,1.1-6.5-1c-2.2-2-2.8-4.9-1.4-6.4c1.4-1.5,4.4-1.1,6.5,1
		C143.3,427.7,144,430.6,142.5,432.1L142.5,432.1z M142.5,432.1"/>
	<path class="st1" d="M161.3,440.3c-0.6,2-3.4,2.9-6.3,2c-2.9-0.9-4.7-3.2-4.1-5.2c0.6-2,3.4-2.9,6.3-2
		C160.1,436,161.9,438.3,161.3,440.3L161.3,440.3z M161.3,440.3"/>
	<path class="st1" d="M182,441.8c0.1,2.1-2.4,3.8-5.4,3.8c-3,0.1-5.5-1.6-5.5-3.7c0-2.1,2.4-3.8,5.4-3.9
		C179.5,438.1,182,439.7,182,441.8L182,441.8z M182,441.8"/>
	<path class="st1" d="M201.2,438.5c0.4,2-1.7,4.1-4.7,4.7c-2.9,0.5-5.6-0.7-6-2.7c-0.4-2.1,1.8-4.2,4.7-4.7
		C198.1,435.3,200.8,436.5,201.2,438.5L201.2,438.5z M201.2,438.5"/>
</g>
</svg>
