<?xml version="1.0" encoding="utf-8"?>
<!-- Generator: Adobe Illustrator 19.2.0, SVG Export Plug-In . SVG Version: 6.00 Build 0)  -->
<svg version="1.1" id="Layer_1" xmlns="http://www.w3.org/2000/svg" xmlns:xlink="http://www.w3.org/1999/xlink" x="0px" y="0px"
	 viewBox="0 0 787.8 224.1" style="enable-background:new 0 0 787.8 224.1;" xml:space="preserve">
<style type="text/css">
	.st0{fill:#D18F00;}
	.st1{fill:#E94F35;}
	.st2{fill:#F39200;}
	.st3{fill:#4B5B5C;}
	.st4{fill:#3A4949;}
	.st5{fill:url(#SVGID_1_);}
	.st6{fill:url(#SVGID_2_);}
	.st7{fill:#AA2322;}
	.st8{fill:#441A0D;}
	.st9{fill:#D89687;}
	.st10{fill:#FFFFFF;}
</style>
<path class="st0" d="M49.5,70c9.2,24.3,23.1,46.5,40.9,65.4s39.1,34.1,62.8,44.8L234.3,0L49.5,70z"/>
<path class="st1" d="M70.9,175.7C70.9,175.7,70.9,175.6,70.9,175.7C70.9,175.6,70.9,175.6,70.9,175.7c-11-11-11.5-11.5-22.4-22.4
	l0,0h-0.1C23.4,144.6,0,171.6,0,224.1C53.2,224.7,79.5,200.7,70.9,175.7z"/>
<path class="st2" d="M67,171.8L67,171.8C67,171.7,67,171.7,67,171.8c-7.1-7.2-7.5-7.5-14.6-14.6l0,0l0,0
	c-16.3-5.6-31.5,11.9-31.5,46.1C55.5,203.7,72.6,188,67,171.8z"/>
<polygon class="st3" points="87.5,203.9 21.1,137.5 45.9,126.9 98.1,179.1 "/>
<path class="st4" d="M98.1,179.1l-52.2-52.2l-8.9,3.8c7.6,11,16,21.4,25.2,31.1c9.7,10.3,20.1,19.7,31.2,28.3L98.1,179.1z"/>
<linearGradient id="SVGID_1_" gradientUnits="userSpaceOnUse" x1="33.6364" y1="207.4189" x2="58.5776" y2="232.36" gradientTransform="matrix(1 0 0 -1 31.795 367.0375)">
	<stop  offset="0.1981" style="stop-color:#914F00"/>
	<stop  offset="0.3348" style="stop-color:#9F5600"/>
	<stop  offset="0.6093" style="stop-color:#B76200"/>
	<stop  offset="0.8408" style="stop-color:#C66900"/>
	<stop  offset="1" style="stop-color:#CB6C00"/>
</linearGradient>
<path class="st5" d="M90.4,135.4C72.6,116.5,58.7,94.3,49.5,70L17.1,82.3c10.8,28.5,27.1,54.6,48,76.9s46,40.1,73.8,52.6l14.2-31.6
	C129.5,169.5,108.1,154.3,90.4,135.4z"/>
<linearGradient id="SVGID_2_" gradientUnits="userSpaceOnUse" x1="60.966" y1="233.3485" x2="198.58" y2="370.9625" gradientTransform="matrix(1 0 0 -1 31.795 367.0375)">
	<stop  offset="0" style="stop-color:#FBBA00"/>
	<stop  offset="6.471223e-02" style="stop-color:#FDC000"/>
	<stop  offset="0.3061" style="stop-color:#FFD500"/>
	<stop  offset="0.5452" style="stop-color:#FFE300"/>
	<stop  offset="0.7787" style="stop-color:#FFEB00"/>
	<stop  offset="1" style="stop-color:#FFED00"/>
</linearGradient>
<path class="st6" d="M52.3,68.9c9.1,23.9,22.7,45.8,40.2,64.4s38.5,33.6,61.8,44.1L234.3,0L52.3,68.9z"/>
<path class="st7" d="M147.5,32.9c0.7,10.8,9.7,19.4,20.7,19.4c11.5,0,20.8-9.3,20.8-20.8c0-4.8-1.6-9.2-4.4-12.7L147.5,32.9z"/>
<path class="st7" d="M204.5,52.7c-7.5,0-13.7,6.1-13.7,13.7c0,5.5,3.3,10.3,8,12.4L210,53.9C208.3,53.1,206.4,52.7,204.5,52.7z"/>
<circle class="st8" cx="165.8" cy="43.6" r="2.9"/>
<circle class="st8" cx="165.8" cy="31" r="2.9"/>
<circle class="st9" cx="177.4" cy="31" r="2.9"/>
<circle class="st9" cx="178.1" cy="41.3" r="2.9"/>
<circle class="st9" cx="155.6" cy="35.8" r="2.9"/>
<circle class="st8" cx="196.2" cy="61" r="1.9"/>
<circle class="st8" cx="202.3" cy="65.3" r="1.9"/>
<circle class="st9" cx="203.2" cy="57.9" r="1.9"/>
<circle class="st9" cx="196.2" cy="69.2" r="1.9"/>
<ellipse transform="matrix(0.3112 -0.9503 0.9503 0.3112 25.4876 207.017)" class="st7" cx="155.6" cy="85.9" rx="20.8" ry="20.7"/>
<ellipse transform="matrix(0.3112 -0.9503 0.9503 0.3112 12.4687 198.9127)" class="st8" cx="143.5" cy="90.9" rx="2.9" ry="2.9"/>
<ellipse transform="matrix(0.3112 -0.9503 0.9503 0.3112 32.4534 219.6668)" class="st8" cx="167.8" cy="87.4" rx="2.9" ry="2.9"/>
<ellipse transform="matrix(0.3112 -0.9503 0.9503 0.3112 36.6296 193.4885)" class="st8" cx="151.8" cy="71.5" rx="2.9" ry="2.9"/>
<ellipse transform="matrix(0.3112 -0.9503 0.9503 0.3112 27.9326 205.5924)" class="st8" cx="155.8" cy="83.5" rx="2.9" ry="2.9"/>
<ellipse transform="matrix(0.3112 -0.9503 0.9503 0.3112 14.9962 209.7404)" class="st9" cx="152.2" cy="94.5" rx="2.9" ry="2.9"/>
<ellipse transform="matrix(0.3112 -0.9503 0.9503 0.3112 22.9438 191.911)" class="st9" cx="143.9" cy="80.1" rx="2.9" ry="2.9"/>
<ellipse transform="matrix(0.3112 -0.9503 0.9503 0.3112 17.8523 221.504)" class="st9" cx="161.7" cy="98.4" rx="2.9" ry="2.9"/>
<ellipse transform="matrix(0.3112 -0.9503 0.9503 0.3112 40.9914 207.2699)" class="st9" cx="163.5" cy="75.4" rx="2.9" ry="2.9"/>
<ellipse transform="matrix(0.4367 -0.8996 0.8996 0.4367 -16.2574 132.2988)" class="st7" cx="97.5" cy="79.1" rx="20.8" ry="20.8"/>
<ellipse transform="matrix(0.4367 -0.8996 0.8996 0.4367 -4.7535 140.1143)" class="st8" cx="109.5" cy="73.9" rx="2.9" ry="2.9"/>
<ellipse transform="matrix(0.4367 -0.8996 0.8996 0.4367 -29.3707 131.1473)" class="st8" cx="90" cy="89" rx="2.9" ry="2.9"/>
<ellipse transform="matrix(0.4367 -0.8996 0.8996 0.4367 -9.1789 118.1295)" class="st8" cx="89.7" cy="66.4" rx="2.9" ry="2.9"/>
<ellipse transform="matrix(0.4367 -0.8996 0.8996 0.4367 -15.9619 129.655)" class="st8" cx="95.6" cy="77.6" rx="2.9" ry="2.9"/>
<ellipse transform="matrix(0.4367 -0.8996 0.8996 0.4367 -14.656 141.9212)" class="st9" cx="106" cy="82.7" rx="2.9" ry="2.9"/>
<ellipse transform="matrix(0.4367 -0.8996 0.8996 0.4367 -2.9019 128.7947)" class="st9" cx="101.4" cy="66.7" rx="2.9" ry="2.9"/>
<ellipse transform="matrix(0.4367 -0.8996 0.8996 0.4367 -25.4756 143.8055)" class="st9" cx="102.1" cy="92.2" rx="2.9" ry="2.9"/>
<ellipse transform="matrix(0.4367 -0.8996 0.8996 0.4367 -22.2294 119.5127)" class="st9" cx="84.3" cy="77.5" rx="2.9" ry="2.9"/>
<ellipse transform="matrix(0.989 -0.1482 0.1482 0.989 -17.2509 18.0788)" class="st7" cx="112.7" cy="124.8" rx="14" ry="14"/>
<ellipse transform="matrix(0.989 -0.1482 0.1482 0.989 -16.0902 18.6788)" class="st8" cx="117.3" cy="117.3" rx="2" ry="2"/>
<ellipse transform="matrix(0.989 -0.1482 0.1482 0.989 -18.4859 18.111)" class="st8" cx="112.3" cy="133.1" rx="2" ry="2"/>
<ellipse transform="matrix(0.989 -0.1482 0.1482 0.989 -16.7446 16.6717)" class="st8" cx="103.5" cy="120.7" rx="2" ry="2"/>
<ellipse transform="matrix(0.989 -0.1482 0.1482 0.989 -17.256 17.8266)" class="st8" cx="111" cy="124.7" rx="2" ry="2"/>
<ellipse transform="matrix(0.989 -0.1482 0.1482 0.989 -16.9941 18.9537)" class="st9" cx="118.7" cy="123.5" rx="2" ry="2"/>
<ellipse transform="matrix(0.989 -0.1482 0.1482 0.989 -16.0357 17.602)" class="st9" cx="110.1" cy="116.4" rx="2" ry="2"/>
<ellipse transform="matrix(0.989 -0.1482 0.1482 0.989 -17.9822 19.2659)" class="st9" cx="120.3" cy="130.3" rx="2" ry="2"/>
<ellipse transform="matrix(0.989 -0.1482 0.1482 0.989 -17.9477 16.9388)" class="st9" cx="104.7" cy="128.9" rx="2" ry="2"/>
<g>
	<path class="st7" d="M173.8,125.6c-9.7-6.2-22.5-3.3-28.6,6.4c-6.2,9.7-3.3,22.5,6.4,28.6c2.8,1.8,5.9,2.8,9.1,3.1l16.2-35.9
		C175.8,127,174.8,126.2,173.8,125.6z"/>
	
		<ellipse transform="matrix(0.5371 -0.8435 0.8435 0.5371 -52.9677 193.3004)" class="st8" cx="149.6" cy="144.9" rx="2.9" ry="2.9"/>
	
		<ellipse transform="matrix(0.5371 -0.8435 0.8435 0.5371 -32.8627 196.3666)" class="st8" cx="162.5" cy="128.1" rx="2.9" ry="2.9"/>
	
		<ellipse transform="matrix(0.5371 -0.8435 0.8435 0.5371 -43.0378 203.0585)" class="st8" cx="163.5" cy="140.7" rx="2.9" ry="2.9"/>
	
		<ellipse transform="matrix(0.5371 -0.8435 0.8435 0.5371 -54.2277 202.2641)" class="st9" cx="157.2" cy="150.5" rx="2.9" ry="2.9"/>
	
		<ellipse transform="matrix(0.5371 -0.8435 0.8435 0.5371 -42.8276 191.0687)" class="st9" cx="152.7" cy="134.6" rx="2.9" ry="2.9"/>
	<path class="st9" d="M163,155.1c-0.6,1-0.6,2.2,0,3.1l2-4.4C164.2,153.9,163.5,154.4,163,155.1z"/>
	<path class="st9" d="M174.5,132.3c-1.4-0.9-3.2-0.5-4,0.9c-0.9,1.4-0.5,3.2,0.9,4c0.3,0.2,0.6,0.3,0.9,0.4L174.5,132.3
		C174.6,132.4,174.6,132.3,174.5,132.3z"/>
</g>
<g>
	<path class="st8" d="M176.6,24.5c1.6,0,2.9-1.3,2.9-2.9c0-0.3,0-0.5-0.1-0.8l-5.4,2.1C174.5,23.8,175.5,24.5,176.6,24.5z"/>
</g>
<g>
	<path class="st10" d="M250.8,72.8h28.9c17.4,0,30.3,13.4,30.3,30.1S297.1,133,279.6,133h-12.8v24h-16V72.8z M266.8,87.7v30.4h11.8
		c9.1,0,15.3-6.8,15.3-15.2s-6.2-15.2-15.3-15.2C278.6,87.7,266.8,87.7,266.8,87.7z"/>
	<path class="st10" d="M312.9,128.1c0-16.6,13.4-30,30-30c17.6,0,29.7,13.2,29.7,29.8v5.8h-44.5c1.8,6.3,7,10.5,15.3,10.5
		c6.3,0,11.6-3.5,14.2-9l12.6,7.5c-5,9-14.1,15.3-26.8,15.3C325.3,158.1,312.9,144.7,312.9,128.1z M328.8,121.1h27.9
		c-2.1-6-7-9.1-13.7-9.1C336.3,112,331.2,115.7,328.8,121.1z"/>
	<path class="st10" d="M394.8,151.3v32.1H379V99.3h15.8v6.6c3.7-4.5,9.6-7.7,17.3-7.7c13,0,27.9,9.6,27.9,30c0,20.3-15.4,30-27.6,30
		C404.7,158.1,398.5,155.5,394.8,151.3z M424.5,128c0-8.9-6.7-15.4-15.4-15.4c-8.5,0-14.7,6.9-14.7,15.4s6.2,15.6,14.7,15.6
		C417.8,143.6,424.5,136.9,424.5,128z"/>
	<path class="st10" d="M461.6,151.3v32.1h-15.8V99.3h15.8v6.6c3.7-4.5,9.6-7.7,17.3-7.7c13,0,27.9,9.6,27.9,30
		c0,20.3-15.4,30-27.6,30C471.5,158.1,465.3,155.5,461.6,151.3z M491.3,128c0-8.9-6.7-15.4-15.4-15.4c-8.5,0-14.7,6.9-14.7,15.4
		s6.2,15.6,14.7,15.6C484.7,143.6,491.3,136.9,491.3,128z"/>
	<path class="st10" d="M511.5,128.1c0-16.6,13.4-30,30-30c17.6,0,29.7,13.2,29.7,29.8v5.8h-44.5c1.8,6.3,7,10.5,15.3,10.5
		c6.3,0,11.6-3.5,14.2-9l12.6,7.5c-5,9-14.1,15.3-26.8,15.3C523.9,158.1,511.5,144.7,511.5,128.1z M527.4,121.1h27.9
		c-2.1-6-7-9.1-13.7-9.1S529.8,115.7,527.4,121.1z"/>
	<path class="st10" d="M577.6,99.3h15.7v9.4c2.9-6,8.1-9.4,15.9-9.4h6.3v15.3h-10c-8.4,0-12.1,4.4-12.1,15.1v27.2h-15.8L577.6,99.3
		L577.6,99.3z"/>
	<path class="st10" d="M618.6,128.1c0-16.6,13.2-30,29.8-30s29.8,13.4,29.8,30s-13.2,30-29.8,30
		C631.9,158.1,618.6,144.7,618.6,128.1z M663,128.1c0-8.2-6.5-15-14.5-15c-8.2,0-14.4,6.8-14.4,15s6.2,15,14.4,15
		C656.5,143.1,663,136.3,663,128.1z"/>
	<path class="st10" d="M684.7,99.3h15.7v6.5c3.7-4.7,9.3-7.6,15.9-7.6c13.6,0,21.8,8.8,21.8,23.6v35.1h-16v-33.1
		c0-7.7-3.6-12.2-10.6-12.2c-6,0-10.9,4.1-10.9,13.8v31.5h-15.8V99.3H684.7z"/>
	<path class="st10" d="M746.1,77.8h15.8v15.8h-15.8V77.8z M746.1,99.3h15.8v57.6h-15.8V99.3z"/>
</g>
</svg>
