<?xml version="1.0" encoding="utf-8"?>
<!-- Generator: Adobe Illustrator 19.2.0, SVG Export Plug-In . SVG Version: 6.00 Build 0)  -->
<svg version="1.1" id="Layer_1" xmlns="http://www.w3.org/2000/svg" xmlns:xlink="http://www.w3.org/1999/xlink" x="0px" y="0px"
	 viewBox="0 0 224.4 273" style="enable-background:new 0 0 224.4 273;" xml:space="preserve">
<style type="text/css">
	.st0{fill:none;stroke:#239E49;stroke-width:3;}
	.st1{fill:none;stroke:#239E49;stroke-width:0.75;}
	.st2{fill:#239E49;}
	.st3{fill:none;stroke:#FFFFFF;stroke-width:2;stroke-miterlimit:10;}
	.st4{fill:none;stroke:#FFFFFF;stroke-miterlimit:10;}
	.st5{fill:none;stroke:#FFFFFF;stroke-width:1.5074;stroke-miterlimit:10;}
	.st6{fill:none;stroke:#239E49;stroke-miterlimit:10;}
	.st7{fill:none;stroke:#199F49;stroke-miterlimit:10;}
</style>
<g>
	<g>
		<g>
			<path class="st0" d="M195.5,1.4h-3.4h-26.8H28C14.3,1.4,3.1,12.6,3.1,26.3v397.5c0,13.7,11.2,24.9,24.9,24.9h167.5
				c13.7,0,24.9-11.2,24.9-24.9V26.2C220.3,12.6,209.1,1.4,195.5,1.4z"/>
		</g>
	</g>
	<g>
		<path class="st1" d="M126.7,23c0,0.8-0.7,1.5-1.5,1.5h-27c-0.8,0-1.5-0.7-1.5-1.5s0.7-1.5,1.5-1.5h27
			C126.1,21.5,126.7,22.1,126.7,23z"/>
		<circle class="st1" cx="111.7" cy="10.2" r="1.8"/>
	</g>
	<circle class="st1" cx="81" cy="23.2" r="3.3"/>
	<g>
		<path class="st2" d="M208.6,46.7v346.7H12.5V46.7H208.6 M209.6,45.7h-1H12.5h-1v1v346.7v1h1h196.1h1v-1V46.7L209.6,45.7
			L209.6,45.7z"/>
	</g>
	<g>
		<g>
			<g>
				<path class="st2" d="M4,109.6c0,1.1-0.9,2-2,2l0,0c-1.1,0-2-0.9-2-2V84.7c0-1.1,0.9-2,2-2l0,0c1.1,0,2,0.9,2,2V109.6z"/>
			</g>
		</g>
	</g>
	<g>
		<g>
			<g>
				<path class="st2" d="M224.4,109.6c0,1.1-0.9,2-2,2l0,0c-1.1,0-2-0.9-2-2V84.7c0-1.1,0.9-2,2-2l0,0c1.1,0,2,0.9,2,2V109.6z"/>
			</g>
		</g>
	</g>
	<g>
		<g>
			<g>
				<path class="st2" d="M4,145.1c0,1.1-0.9,2-2,2l0,0c-1.1,0-2-0.9-2-2v-24.9c0-1.1,0.9-2,2-2l0,0c1.1,0,2,0.9,2,2V145.1z"/>
			</g>
		</g>
	</g>
	<g>
		<g>
			<g>
				<path class="st2" d="M3.6,64.8H0.4c-0.2,0-0.4-0.2-0.4-0.5V48.4c0-0.3,0.2-0.5,0.4-0.5h3.2c0.2,0,0.4,0.2,0.4,0.5v15.9
					C4,64.6,3.8,64.8,3.6,64.8z"/>
			</g>
		</g>
	</g>
	<line class="st3" x1="61.1" y1="47.2" x2="61.1" y2="393.2"/>
	<line class="st4" x1="51.3" y1="47.2" x2="51.3" y2="393.2"/>
	<line class="st4" x1="90.8" y1="47.2" x2="90.8" y2="393.2"/>
	<line class="st4" x1="130" y1="47.2" x2="130" y2="393.2"/>
	<line class="st4" x1="169.1" y1="47.2" x2="169.1" y2="393.2"/>
	<line class="st3" x1="110.5" y1="47.2" x2="110.5" y2="393.2"/>
	<line class="st3" x1="159.4" y1="47.2" x2="159.4" y2="393.2"/>
	<line class="st5" x1="12.2" y1="95.8" x2="208.7" y2="95.8"/>
	<line class="st5" x1="12.2" y1="144.7" x2="208.7" y2="144.7"/>
	<line class="st5" x1="12.2" y1="193.8" x2="208.7" y2="193.8"/>
	<line class="st5" x1="12.2" y1="242.7" x2="208.7" y2="242.7"/>
	<line class="st5" x1="12.2" y1="291.7" x2="208.7" y2="291.7"/>
	<line class="st5" x1="12.2" y1="340.7" x2="208.7" y2="340.7"/>
	<line class="st5" x1="12.2" y1="389.7" x2="208.7" y2="389.7"/>
</g>
<g>
	<path class="st6" d="M59.6,130.4c6.8,18.1,17.2,34.6,30.4,48.7s29.1,25.4,46.7,33.3l60.4-134.1L59.6,130.4z"/>
	<path class="st6" d="M75.5,209.1L75.5,209.1L75.5,209.1c-8.2-8.2-8.5-8.6-16.7-16.7l0,0c0,0,0,0-0.1,0c-18.6-6.4-36,13.6-36,52.8
		C62.4,245.6,81.9,227.7,75.5,209.1z"/>
	<path class="st6" d="M72.7,206.2L72.7,206.2L72.7,206.2c-5.3-5.3-5.5-5.6-10.8-10.9l0,0l0,0c-12.1-4.2-23.4,8.9-23.5,34.3
		C64.1,229.9,76.8,218.3,72.7,206.2z"/>
	<polygon class="st6" points="87.9,230.1 38.5,180.7 56.9,172.8 95.8,211.7 	"/>
	<path class="st6" d="M95.8,211.7L57,172.8l-6.6,2.8c5.7,8.2,11.9,15.9,18.7,23.2c7.2,7.6,15,14.7,23.3,21.1L95.8,211.7z"/>
	<path class="st6" d="M90,179.1c-13.2-14.1-23.6-30.6-30.4-48.7l-24.1,9.1c8.1,21.2,20.2,40.7,35.7,57.2s34.2,29.8,54.9,39.2
		l10.6-23.5C119.1,204.5,103.3,193.1,90,179.1z"/>
	<path class="st6" d="M61.7,129.6c6.7,17.8,16.9,34.1,29.9,47.9c13,13.8,28.7,25,46,32.8l59.5-132L61.7,129.6z"/>
	<path class="st6" d="M132.5,102.8c0.5,8.1,7.2,14.4,15.4,14.4c8.5,0,15.4-6.9,15.4-15.4c0-3.6-1.2-6.9-3.3-9.5L132.5,102.8z"/>
	<path class="st6" d="M175,117.6c-5.6,0-10.2,4.5-10.2,10.2c0,4.1,2.4,7.6,5.9,9.3l8.3-18.5C177.8,117.9,176.4,117.6,175,117.6z"/>
	<circle class="st6" cx="146.2" cy="110.8" r="2.2"/>
	<circle class="st6" cx="146.2" cy="101.4" r="2.2"/>
	<circle class="st6" cx="154.8" cy="101.4" r="2.2"/>
	<circle class="st6" cx="155.3" cy="109.1" r="2.2"/>
	<circle class="st6" cx="138.6" cy="105" r="2.2"/>
	<circle class="st6" cx="168.8" cy="123.7" r="1.4"/>
	<circle class="st6" cx="173.4" cy="126.9" r="1.4"/>
	<circle class="st6" cx="174" cy="121.4" r="1.4"/>
	<circle class="st6" cx="168.8" cy="129.8" r="1.4"/>
	
		<ellipse transform="matrix(0.3112 -0.9503 0.9503 0.3112 -39.7586 229.7203)" class="st6" cx="138.6" cy="142.3" rx="15.4" ry="15.4"/>
	<ellipse transform="matrix(0.3112 -0.9503 0.9503 0.3112 -49.5669 223.6866)" class="st6" cx="129.5" cy="146" rx="2.2" ry="2.2"/>
	
		<ellipse transform="matrix(0.3112 -0.9503 0.9503 0.3112 -34.5683 239.0921)" class="st6" cx="147.7" cy="143.4" rx="2.2" ry="2.2"/>
	
		<ellipse transform="matrix(0.3112 -0.9503 0.9503 0.3112 -31.5585 219.5588)" class="st6" cx="135.7" cy="131.6" rx="2.2" ry="2.2"/>
	
		<ellipse transform="matrix(0.3112 -0.9503 0.9503 0.3112 -38.0101 228.637)" class="st6" cx="138.7" cy="140.5" rx="2.2" ry="2.2"/>
	
		<ellipse transform="matrix(0.3112 -0.9503 0.9503 0.3112 -47.6229 231.7405)" class="st6" cx="136.1" cy="148.7" rx="2.2" ry="2.2"/>
	<ellipse transform="matrix(0.3112 -0.9503 0.9503 0.3112 -41.6188 218.4807)" class="st6" cx="129.9" cy="138" rx="2.2" ry="2.2"/>
	
		<ellipse transform="matrix(0.3112 -0.9503 0.9503 0.3112 -45.3706 240.4595)" class="st6" cx="143.2" cy="151.5" rx="2.2" ry="2.2"/>
	
		<ellipse transform="matrix(0.3112 -0.9503 0.9503 0.3112 -28.2069 229.8555)" class="st6" cx="144.5" cy="134.4" rx="2.2" ry="2.2"/>
	
		<ellipse transform="matrix(0.4367 -0.8996 0.8996 0.4367 -69.79 162.9927)" class="st6" cx="95.3" cy="137.2" rx="15.4" ry="15.4"/>
	
		<ellipse transform="matrix(0.4367 -0.8996 0.8996 0.4367 -61.1417 168.8725)" class="st6" cx="104.3" cy="133.3" rx="2.2" ry="2.2"/>
	
		<ellipse transform="matrix(0.4367 -0.8996 0.8996 0.4367 -79.4509 162.2525)" class="st6" cx="89.8" cy="144.6" rx="2.2" ry="2.2"/>
	
		<ellipse transform="matrix(0.4367 -0.8996 0.8996 0.4367 -64.4998 152.4888)" class="st6" cx="89.5" cy="127.7" rx="2.2" ry="2.2"/>
	<ellipse transform="matrix(0.4367 -0.8996 0.8996 0.4367 -69.536 161.1218)" class="st6" cx="93.9" cy="136.1" rx="2.2" ry="2.2"/>
	
		<ellipse transform="matrix(0.4367 -0.8996 0.8996 0.4367 -68.5067 170.2674)" class="st6" cx="101.7" cy="139.8" rx="2.2" ry="2.2"/>
	
		<ellipse transform="matrix(0.4367 -0.8996 0.8996 0.4367 -59.7299 160.4976)" class="st6" cx="98.3" cy="127.9" rx="2.2" ry="2.2"/>
	<ellipse transform="matrix(0.4367 -0.8996 0.8996 0.4367 -76.5493 171.6771)" class="st6" cx="98.8" cy="147" rx="2.2" ry="2.2"/>
	<ellipse transform="matrix(0.4367 -0.8996 0.8996 0.4367 -74.2138 153.5445)" class="st6" cx="85.5" cy="136" rx="2.2" ry="2.2"/>
	
		<ellipse transform="matrix(0.989 -0.1482 0.1482 0.989 -24.2099 17.6913)" class="st6" cx="106.6" cy="171.3" rx="10.4" ry="10.4"/>
	<ellipse transform="matrix(0.989 -0.1482 0.1482 0.989 -23.3264 18.1453)" class="st7" cx="110.1" cy="165.6" rx="1.5" ry="1.5"/>
	<ellipse transform="matrix(0.989 -0.1482 0.1482 0.989 -25.1183 17.7126)" class="st7" cx="106.3" cy="177.4" rx="1.5" ry="1.5"/>
	<ellipse transform="matrix(0.989 -0.1482 0.1482 0.989 -23.8106 16.6461)" class="st7" cx="99.8" cy="168.1" rx="1.5" ry="1.5"/>
	<ellipse transform="matrix(0.989 -0.1482 0.1482 0.989 -24.2084 17.5121)" class="st7" cx="105.4" cy="171.2" rx="1.5" ry="1.5"/>
	<ellipse transform="matrix(0.989 -0.1482 0.1482 0.989 -24.013 18.3465)" class="st7" cx="111.1" cy="170.3" rx="1.5" ry="1.5"/>
	<ellipse transform="matrix(0.989 -0.1482 0.1482 0.989 -23.2978 17.3402)" class="st7" cx="104.7" cy="165" rx="1.5" ry="1.5"/>
	<ellipse transform="matrix(0.989 -0.1482 0.1482 0.989 -24.7398 18.578)" class="st7" cx="112.3" cy="175.3" rx="1.5" ry="1.5"/>
	<ellipse transform="matrix(0.989 -0.1482 0.1482 0.989 -24.7195 16.849)" class="st7" cx="100.7" cy="174.3" rx="1.5" ry="1.5"/>
	<g>
		<path class="st6" d="M152.1,171.8c-7.2-4.6-16.8-2.5-21.3,4.7c-4.5,7.2-2.5,16.8,4.7,21.3c2.1,1.3,4.4,2.1,6.7,2.3l12-26.7
			C153.6,172.9,152.9,172.3,152.1,171.8z"/>
		
			<ellipse transform="matrix(0.5371 -0.8435 0.8435 0.5371 -94.9716 199.3572)" class="st6" cx="134.2" cy="186.2" rx="2.2" ry="2.2"/>
		
			<ellipse transform="matrix(0.5371 -0.8435 0.8435 0.5371 -79.9182 201.6676)" class="st6" cx="143.8" cy="173.7" rx="2.2" ry="2.2"/>
		
			<ellipse transform="matrix(0.5371 -0.8435 0.8435 0.5371 -87.6228 206.5693)" class="st6" cx="144.4" cy="183.1" rx="2.2" ry="2.2"/>
		
			<ellipse transform="matrix(0.5371 -0.8435 0.8435 0.5371 -95.8662 206.0604)" class="st6" cx="139.8" cy="190.4" rx="2.2" ry="2.2"/>
		
			<ellipse transform="matrix(0.5371 -0.8435 0.8435 0.5371 -87.3438 197.7429)" class="st6" cx="136.5" cy="178.5" rx="2.2" ry="2.2"/>
		<path class="st6" d="M144.1,193.8c-0.5,0.7-0.4,1.6,0,2.3l1.5-3.3C145,192.9,144.5,193.2,144.1,193.8z"/>
		<path class="st6" d="M152.7,176.8c-1-0.6-2.3-0.4-3,0.7c-0.6,1-0.4,2.3,0.7,3c0.2,0.1,0.4,0.2,0.7,0.3l1.8-3.9
			C152.7,176.8,152.7,176.8,152.7,176.8z"/>
	</g>
	<g>
		<path class="st6" d="M154.2,96.6c1.2,0,2.2-1,2.2-2.2c0-0.2,0-0.4-0.1-0.6l-4,1.5C152.7,96.1,153.4,96.6,154.2,96.6z"/>
	</g>
</g>
</svg>
