<?xml version="1.0" encoding="utf-8"?>
<!-- Generator: Adobe Illustrator 19.2.1, SVG Export Plug-In . SVG Version: 6.00 Build 0)  -->
<svg version="1.1" id="Layer_1" xmlns="http://www.w3.org/2000/svg" xmlns:xlink="http://www.w3.org/1999/xlink" x="0px" y="0px"
	 viewBox="0 0 595.3 569.5" style="enable-background:new 0 0 595.3 569.5;" xml:space="preserve">
<style type="text/css">
	.st0{fill:#D18F00;}
	.st1{fill:#E94F35;}
	.st2{fill:#F39200;}
	.st3{fill:#4B5B5C;}
	.st4{fill:#3A4949;}
	.st5{fill:url(#SVGID_1_);}
	.st6{fill:url(#SVGID_2_);}
	.st7{fill:#AA2322;}
	.st8{fill:#441A0D;}
	.st9{fill:#D89687;}
</style>
<path class="st0" d="M125.8,177.8C149.1,239.5,184.4,296,229.6,344c45.2,48,99.4,86.7,159.5,113.8L595.3,0L125.8,177.8z"/>
<path class="st1" d="M180.1,446.4c0-0.1,0-0.1-0.1-0.2c0,0,0,0,0,0c-27.8-27.8-29-29-56.8-56.8c0,0,0,0,0,0c-0.1,0-0.1,0-0.2-0.1
	C59.6,367.4,0,435.9,0,569.5C135.1,571,202,509.9,180.1,446.4z"/>
<path class="st2" d="M170.3,436.5c0,0,0-0.1,0-0.1c0,0,0,0,0,0c-18.1-18.1-18.9-18.9-37-37c0,0,0,0,0,0c0,0-0.1,0-0.1,0
	c-41.3-14.2-80,30.3-80.1,117.2C141,517.5,184.5,477.8,170.3,436.5z"/>
<polygon class="st3" points="222.3,518.1 53.7,349.5 116.6,322.5 249.2,455.2 "/>
<path class="st4" d="M249.2,455.2L116.6,322.5l-22.7,9.7c19.3,27.9,40.6,54.3,63.9,79.1c24.6,26.1,51.1,50.1,79.4,71.9L249.2,455.2z
	"/>
<linearGradient id="SVGID_1_" gradientUnits="userSpaceOnUse" x1="134.4142" y1="264.4956" x2="197.7881" y2="201.1217" gradientTransform="matrix(1 0 0 1 31.795 141.0375)">
	<stop  offset="0.1981" style="stop-color:#914F00"/>
	<stop  offset="0.3348" style="stop-color:#9F5600"/>
	<stop  offset="0.6093" style="stop-color:#B76200"/>
	<stop  offset="0.8408" style="stop-color:#C66900"/>
	<stop  offset="1" style="stop-color:#CB6C00"/>
</linearGradient>
<path class="st5" d="M229.6,344c-45.2-48-80.5-104.5-103.8-166.2l-82.4,31.2c27.5,72.5,68.9,138.9,122,195.3
	s116.8,101.9,187.5,133.7l36.2-80.3C329,430.7,274.8,392,229.6,344z"/>
<linearGradient id="SVGID_2_" gradientUnits="userSpaceOnUse" x1="204.0368" y1="198.6923" x2="553.6258" y2="-150.8967" gradientTransform="matrix(1 0 0 1 31.795 141.0375)">
	<stop  offset="0" style="stop-color:#FBBA00"/>
	<stop  offset="6.471223e-02" style="stop-color:#FDC000"/>
	<stop  offset="0.3061" style="stop-color:#FFD500"/>
	<stop  offset="0.5452" style="stop-color:#FFE300"/>
	<stop  offset="0.7787" style="stop-color:#FFEB00"/>
	<stop  offset="1" style="stop-color:#FFED00"/>
</linearGradient>
<path class="st6" d="M132.9,175.1c23,60.7,57.7,116.3,102.2,163.6c44.5,47.3,97.9,85.4,157.1,112L595.3,0L132.9,175.1z"/>
<path class="st7" d="M374.7,83.6c1.8,27.5,24.6,49.3,52.6,49.3c29.1,0,52.7-23.6,52.7-52.7c0-12.2-4.2-23.4-11.1-32.3L374.7,83.6z"
	/>
<path class="st7" d="M519.6,133.9c-19.2,0-34.7,15.5-34.7,34.7c0,14,8.3,26.1,20.3,31.6l28.5-63.3
	C529.3,135,524.6,133.9,519.6,133.9z"/>
<circle class="st8" cx="421.2" cy="110.9" r="7.4"/>
<circle class="st8" cx="421.2" cy="78.8" r="7.4"/>
<circle class="st9" cx="450.6" cy="78.8" r="7.4"/>
<circle class="st9" cx="452.5" cy="104.9" r="7.4"/>
<circle class="st9" cx="395.4" cy="90.9" r="7.4"/>
<circle class="st8" cx="498.6" cy="155" r="4.9"/>
<circle class="st8" cx="514.1" cy="165.9" r="4.9"/>
<circle class="st9" cx="516.4" cy="147" r="4.9"/>
<circle class="st9" cx="498.6" cy="175.7" r="4.9"/>
<ellipse transform="matrix(0.3112 -0.9503 0.9503 0.3112 64.8044 526.1273)" class="st7" cx="395.4" cy="218.4" rx="52.7" ry="52.7"/>
<ellipse transform="matrix(0.3112 -0.9503 0.9503 0.3112 31.5528 505.4808)" class="st8" cx="364.5" cy="231" rx="7.4" ry="7.4"/>
<ellipse transform="matrix(0.3112 -0.9503 0.9503 0.3112 82.5593 558.2608)" class="st8" cx="426.4" cy="222.2" rx="7.4" ry="7.4"/>
<ellipse transform="matrix(0.3112 -0.9503 0.9503 0.3112 93.0218 491.6197)" class="st8" cx="385.7" cy="181.6" rx="7.4" ry="7.4"/>
<ellipse transform="matrix(0.3112 -0.9503 0.9503 0.3112 71.0505 522.4122)" class="st8" cx="395.9" cy="212.2" rx="7.4" ry="7.4"/>
<ellipse transform="matrix(0.3112 -0.9503 0.9503 0.3112 38.1717 532.9675)" class="st9" cx="386.8" cy="240.1" rx="7.4" ry="7.4"/>
<ellipse transform="matrix(0.3112 -0.9503 0.9503 0.3112 58.3499 487.7292)" class="st9" cx="365.7" cy="203.6" rx="7.4" ry="7.4"/>
<ellipse transform="matrix(0.3112 -0.9503 0.9503 0.3112 45.4917 562.7618)" class="st9" cx="411" cy="250" rx="7.4" ry="7.4"/>
<ellipse transform="matrix(0.3112 -0.9503 0.9503 0.3112 104.2933 526.7293)" class="st9" cx="415.5" cy="191.4" rx="7.4" ry="7.4"/>
<ellipse transform="matrix(0.4367 -0.8996 0.8996 0.4367 -41.4485 336.0535)" class="st7" cx="247.6" cy="201.1" rx="52.7" ry="52.7"/>
<ellipse transform="matrix(0.4367 -0.8996 0.8996 0.4367 -12.1764 355.9526)" class="st8" cx="278.2" cy="187.7" rx="7.4" ry="7.4"/>
<ellipse transform="matrix(0.4367 -0.8996 0.8996 0.4367 -74.5239 333.1791)" class="st8" cx="228.8" cy="226.1" rx="7.4" ry="7.4"/>
<ellipse transform="matrix(0.4367 -0.8996 0.8996 0.4367 -23.2913 300.0633)" class="st8" cx="228" cy="168.6" rx="7.4" ry="7.4"/>
<ellipse transform="matrix(0.4367 -0.8996 0.8996 0.4367 -40.6717 329.5273)" class="st8" cx="242.8" cy="197.2" rx="7.4" ry="7.4"/>
<ellipse transform="matrix(0.4367 -0.8996 0.8996 0.4367 -37.3226 360.5751)" class="st9" cx="269.3" cy="210.1" rx="7.4" ry="7.4"/>
<ellipse transform="matrix(0.4367 -0.8996 0.8996 0.4367 -7.3453 327.2886)" class="st9" cx="257.7" cy="169.5" rx="7.4" ry="7.4"/>
<ellipse transform="matrix(0.4367 -0.8996 0.8996 0.4367 -64.6332 365.4655)" class="st9" cx="259.5" cy="234.3" rx="7.4" ry="7.4"/>
<ellipse transform="matrix(0.4367 -0.8996 0.8996 0.4367 -56.4457 303.6397)" class="st9" cx="214.2" cy="196.9" rx="7.4" ry="7.4"/>
<ellipse transform="matrix(0.989 -0.1482 0.1482 0.989 -43.8568 45.9384)" class="st7" cx="286.2" cy="317.2" rx="35.6" ry="35.6"/>
<ellipse transform="matrix(0.989 -0.1482 0.1482 0.989 -40.888 47.4889)" class="st8" cx="298.1" cy="298" rx="5" ry="5"/>
<ellipse transform="matrix(0.989 -0.1482 0.1482 0.989 -46.997 46.0297)" class="st8" cx="285.3" cy="338.3" rx="5" ry="5"/>
<ellipse transform="matrix(0.989 -0.1482 0.1482 0.989 -42.5434 42.3573)" class="st8" cx="262.9" cy="306.6" rx="5" ry="5"/>
<ellipse transform="matrix(0.989 -0.1482 0.1482 0.989 -43.8551 45.3166)" class="st8" cx="282.1" cy="316.9" rx="5" ry="5"/>
<ellipse transform="matrix(0.989 -0.1482 0.1482 0.989 -43.2011 48.1982)" class="st9" cx="301.7" cy="313.9" rx="5" ry="5"/>
<ellipse transform="matrix(0.989 -0.1482 0.1482 0.989 -40.7471 44.742)" class="st9" cx="279.8" cy="295.7" rx="5" ry="5"/>
<ellipse transform="matrix(0.989 -0.1482 0.1482 0.989 -45.7146 48.9562)" class="st9" cx="305.6" cy="331.2" rx="5" ry="5"/>
<ellipse transform="matrix(0.989 -0.1482 0.1482 0.989 -45.6206 43.0557)" class="st9" cx="266" cy="327.6" rx="5" ry="5"/>
<g>
	<path class="st7" d="M441.6,319.1c-24.6-15.6-57.2-8.4-72.8,16.2c-15.6,24.6-8.4,57.2,16.2,72.8c7.2,4.6,15.1,7.1,23,7.9l41-91.1
		C446.7,322.7,444.3,320.8,441.6,319.1z"/>
	
		<ellipse transform="matrix(0.5371 -0.8435 0.8435 0.5371 -134.5032 491.0944)" class="st8" cx="380.2" cy="368.1" rx="7.4" ry="7.4"/>
	<ellipse transform="matrix(0.5371 -0.8435 0.8435 0.5371 -83.4596 499.0199)" class="st8" cx="413" cy="325.6" rx="7.4" ry="7.4"/>
	
		<ellipse transform="matrix(0.5371 -0.8435 0.8435 0.5371 -109.4787 515.8896)" class="st8" cx="415.3" cy="357.7" rx="7.4" ry="7.4"/>
	
		<ellipse transform="matrix(0.5371 -0.8435 0.8435 0.5371 -137.7263 514.0458)" class="st9" cx="399.5" cy="382.5" rx="7.4" ry="7.4"/>
	
		<ellipse transform="matrix(0.5371 -0.8435 0.8435 0.5371 -108.7279 485.6209)" class="st9" cx="388.1" cy="341.9" rx="7.4" ry="7.4"/>
	<path class="st9" d="M414.3,394.1c-1.6,2.5-1.5,5.5,0,7.9l5-11.2C417.3,391.1,415.5,392.2,414.3,394.1z"/>
	<path class="st9" d="M443.5,336.2c-3.5-2.2-8-1.2-10.2,2.3c-2.2,3.5-1.2,8,2.3,10.2c0.7,0.5,1.5,0.8,2.3,0.9l6-13.2
		C443.7,336.3,443.6,336.2,443.5,336.2z"/>
</g>
<g>
	<path class="st8" d="M448.8,62.2c4.1,0,7.4-3.3,7.4-7.4c0-0.7-0.1-1.4-0.3-2L442.2,58C443.4,60.5,445.9,62.2,448.8,62.2z"/>
</g>
</svg>
